<svg width="34" height="34" viewBox="0 0 34 34" fill="none" xmlns="http://www.w3.org/2000/svg">
<path d="M20.6009 12.2987L15.2975 17.507L20.6009 22.7153C20.7274 22.8396 20.8278 22.9871 20.8963 23.1495C20.9647 23.3119 21 23.4859 21 23.6617C21 23.8374 20.9647 24.0114 20.8963 24.1738C20.8278 24.3362 20.7274 24.4837 20.6009 24.608C20.4743 24.7323 20.3241 24.8309 20.1587 24.8981C19.9934 24.9654 19.8162 25 19.6372 25C19.4583 25 19.2811 24.9654 19.1157 24.8981C18.9504 24.8309 18.8002 24.7323 18.6736 24.608L12.3998 18.4466C11.8667 17.9231 11.8667 17.0774 12.3998 16.5539L18.6736 10.3926C18.8001 10.2681 18.9503 10.1694 19.1156 10.102C19.281 10.0347 19.4582 10 19.6372 10C19.8162 10 19.9935 10.0347 20.1588 10.102C20.3242 10.1694 20.4744 10.2681 20.6009 10.3926C21.1203 10.9161 21.1339 11.7752 20.6009 12.2987Z" fill="white"/>
<circle cx="17" cy="17" r="16" stroke="white" stroke-width="2"/>
</svg>
