<svg width="32" height="32" viewBox="0 0 32 32" fill="none" xmlns="http://www.w3.org/2000/svg">
<path d="M11.4336 10.2388L17.1951 16.0003L11.4336 21.7617C11.2961 21.8992 11.1871 22.0624 11.1127 22.242C11.0383 22.4216 11 22.6142 11 22.8086C11 23.003 11.0383 23.1955 11.1127 23.3751C11.1871 23.5548 11.2961 23.718 11.4336 23.8554C11.5711 23.9929 11.7343 24.102 11.9139 24.1764C12.0935 24.2508 12.2861 24.2891 12.4805 24.2891C12.6749 24.2891 12.8674 24.2508 13.047 24.1764C13.2267 24.102 13.3899 23.9929 13.5273 23.8554L20.3431 17.0397C20.9222 16.4606 20.9222 15.5251 20.3431 14.946L13.5273 8.13026C13.39 7.99261 13.2268 7.8834 13.0472 7.80888C12.8675 7.73437 12.675 7.69601 12.4805 7.69601C12.286 7.69601 12.0934 7.73437 11.9138 7.80888C11.7342 7.8834 11.571 7.99261 11.4336 8.13026C10.8694 8.70938 10.8545 9.65972 11.4336 10.2388Z" fill="#898989"/>
</svg>
