<svg width="512" height="512" viewBox="0 0 512 512" fill="none" xmlns="http://www.w3.org/2000/svg">
<rect width="512" height="512" fill="#D9D9D9"/>
<rect width="512" height="512" fill="url(#paint0_linear_5618_9220)"/>
<path d="M191.798 257.527C213.012 257.527 230.21 240.329 230.21 219.115C230.21 197.901 213.012 180.703 191.798 180.703C170.583 180.703 153.386 197.901 153.386 219.115C153.386 240.329 170.583 257.527 191.798 257.527Z" fill="#FAFAFA"/>
<path d="M278.763 178.825C278.13 178.004 277.328 177.328 276.411 176.843C275.494 176.358 274.484 176.075 273.449 176.013C272.414 175.951 271.378 176.111 270.409 176.483C269.441 176.855 268.564 177.43 267.837 178.169C265.288 180.719 264.996 184.798 267.181 187.639C275.704 198.565 286.412 225.735 267.181 250.356C264.996 253.197 265.288 257.276 267.837 259.825C270.969 262.958 276.068 262.593 278.763 259.17C289.69 245.111 303.165 210.22 278.763 178.825ZM258.368 200.605C257.802 199.638 257.023 198.814 256.091 198.194C255.158 197.574 254.097 197.175 252.987 197.027C251.877 196.88 250.748 196.987 249.686 197.342C248.624 197.697 247.657 198.29 246.858 199.075C244.455 201.479 244.236 205.194 245.912 208.18C247.733 211.385 251.302 220.491 245.839 229.96C244.163 232.874 244.455 236.516 246.858 238.847C250.282 242.271 255.964 241.396 258.368 237.244C266.817 222.749 262.592 207.962 258.368 200.605Z" fill="#FAFAFA"/>
<path d="M111 328.743C111 294.533 138.732 266.801 172.942 266.801H210.653C244.863 266.801 272.595 294.533 272.595 328.743V328.743C272.595 333.304 268.897 337.002 264.336 337.002H119.259C114.698 337.002 111 333.304 111 328.743V328.743Z" fill="#FAFAFA"/>
<rect x="321.604" y="180.703" width="79.473" height="156.297" rx="8" fill="#FAFAFA"/>
<circle cx="360.677" cy="213.155" r="17.8814" fill="#EE4949"/>
<circle cx="360.677" cy="258.19" r="17.8814" fill="#FFCE1F"/>
<circle cx="360.677" cy="307.198" r="17.8814" fill="#57CB4D"/>
<defs>
<linearGradient id="paint0_linear_5618_9220" x1="256" y1="0" x2="256" y2="512" gradientUnits="userSpaceOnUse">
<stop stop-color="#006163"/>
<stop offset="1" stop-color="#015557"/>
</linearGradient>
</defs>
</svg>
