<svg width="219" height="122" viewBox="0 0 219 122" fill="none" xmlns="http://www.w3.org/2000/svg">
<path d="M61 61.5508C77.0163 61.5508 90 48.567 90 32.5508C90 16.5345 77.0163 3.55078 61 3.55078C44.9837 3.55078 32 16.5345 32 32.5508C32 48.567 44.9837 61.5508 61 61.5508Z" fill="#FAFAFA"/>
<path d="M126.657 2.13281C126.179 1.51301 125.573 1.00285 124.881 0.636658C124.189 0.270467 123.427 0.0567357 122.645 0.00984315C121.863 -0.0370494 121.081 0.0839843 120.35 0.364802C119.619 0.64562 118.957 1.07971 118.408 1.63786C116.483 3.56265 116.263 6.64231 117.913 8.78707C124.347 17.0362 132.431 37.5489 117.913 56.1368C116.263 58.2816 116.483 61.3613 118.408 63.286C120.773 65.6508 124.622 65.3758 126.657 62.7911C134.906 52.1773 145.08 25.8352 126.657 2.13281ZM111.259 18.576C110.832 17.8463 110.244 17.2237 109.54 16.7557C108.836 16.2876 108.034 15.9864 107.196 15.875C106.358 15.7636 105.506 15.845 104.704 16.1129C103.902 16.3809 103.172 16.8283 102.57 17.4211C100.755 19.2359 100.59 22.0406 101.855 24.2954C103.23 26.7151 105.924 33.5893 101.8 40.7385C100.535 42.9383 100.755 45.688 102.57 47.4478C105.154 50.0325 109.444 49.3726 111.259 46.2379C117.638 35.2941 114.448 24.1304 111.259 18.576Z" fill="#FAFAFA"/>
<path d="M0 115.315C0 89.4881 20.9373 68.5508 46.7647 68.5508H75.2353C101.063 68.5508 122 89.4881 122 115.315C122 118.759 119.208 121.551 115.765 121.551H6.23529C2.79163 121.551 0 118.759 0 115.315Z" fill="#FAFAFA"/>
<rect x="159" y="3.55078" width="60" height="118" rx="8" fill="#FAFAFA"/>
<circle cx="188.5" cy="28.0508" r="13.5" fill="#EE4949"/>
<circle cx="188.5" cy="62.0508" r="13.5" fill="#FFCE1F"/>
<circle cx="188.5" cy="99.0508" r="13.5" fill="#57CB4D"/>
</svg>
