<svg width="15" height="18" viewBox="0 0 15 18" fill="none" xmlns="http://www.w3.org/2000/svg">
<path d="M9.16667 14H3.33333V12H9.16667M11.6667 10H3.33333V8H11.6667M11.6667 6H3.33333V4H11.6667M13.3333 0H1.66667C0.741667 0 0 0.89 0 2V16C0 16.5304 0.175595 17.0391 0.488155 17.4142C0.800716 17.7893 1.22464 18 1.66667 18H13.3333C13.7754 18 14.1993 17.7893 14.5118 17.4142C14.8244 17.0391 15 16.5304 15 16V2C15 1.46957 14.8244 0.960859 14.5118 0.585786C14.1993 0.210714 13.7754 0 13.3333 0Z" fill="white"/>
</svg>
